<svg xmlns="http://www.w3.org/2000/svg" viewBox="0 0 200 200" fill="none" opacity="0.15">
  <defs>
    <linearGradient id="goldGradient" x1="0%" y1="0%" x2="100%" y2="100%">
      <stop offset="0%" style="stop-color:#FFD700;stop-opacity:1" />
      <stop offset="50%" style="stop-color:#FFA500;stop-opacity:1" />
      <stop offset="100%" style="stop-color:#FFD700;stop-opacity:1" />
    </linearGradient>
  </defs>

  {/* 吉祥云纹 */}
  <path d="M40,60 Q50,40 70,50 Q80,35 95,45 Q105,30 120,45 Q130,35 145,50 Q160,40 170,60 Q180,55 175,70 Q170,85 155,85 Q145,90 130,80 Q120,95 105,85 Q95,90 80,80 Q65,90 50,85 Q35,85 30,70 Q25,55 40,60 Z"
        fill="url(#goldGradient)" />

  <path d="M10,140 Q20,120 40,130 Q50,115 65,125 Q75,110 90,125 Q100,115 115,130 Q130,120 140,140 Q150,135 145,150 Q140,165 125,165 Q115,170 100,160 Q90,175 75,165 Q65,170 50,160 Q35,170 20,165 Q5,165 0,150 Q-5,135 10,140 Z"
        fill="url(#goldGradient)" transform="translate(10, -10)" />

  <path d="M100,100 Q110,80 130,90 Q140,75 155,85 Q165,70 180,85 Q190,75 200,95 Q210,90 205,105 Q200,120 185,120 Q175,125 160,115 Q150,130 135,120 Q125,125 110,115 Q95,125 80,120 Q65,120 60,105 Q55,90 70,95 Q80,80 90,90 Q100,75 110,90 Q120,80 130,95 Z"
        fill="url(#goldGradient)" transform="rotate(180, 100, 100) translate(-50, -20)" />
</svg>
